<svg id="visual" viewBox="0 0 900 600" width="900" height="600" xmlns="http://www.w3.org/2000/svg" xmlns:xlink="http://www.w3.org/1999/xlink" version="1.1"><rect x="0" y="0" width="900" height="600" fill="#fbe0e0"></rect><path d="M0 396L21.5 412.8C43 429.7 86 463.3 128.8 469.5C171.7 475.7 214.3 454.3 257.2 434.7C300 415 343 397 385.8 411.2C428.7 425.3 471.3 471.7 514.2 472C557 472.3 600 426.7 642.8 418.2C685.7 409.7 728.3 438.3 771.2 448.3C814 458.3 857 449.7 878.5 445.3L900 441L900 601L878.5 601C857 601 814 601 771.2 601C728.3 601 685.7 601 642.8 601C600 601 557 601 514.2 601C471.3 601 428.7 601 385.8 601C343 601 300 601 257.2 601C214.3 601 171.7 601 128.8 601C86 601 43 601 21.5 601L0 601Z" fill="#ffeeee" stroke-linecap="round" stroke-linejoin="miter"></path></svg>